<svg xmlns="http://www.w3.org/2000/svg" width="89.316" height="99.053" viewBox="0 0 465.81 516.59" shape-rendering="geometricPrecision" text-rendering="geometricPrecision" image-rendering="optimizeQuality" fill-rule="evenodd" clip-rule="evenodd"><path d="M451.47 398.15L242.1 516.59v-92.23l130.45-71.78 78.92 45.56zm14.34-12.97V137.52l-76.58 44.26v159.2l76.58 44.19zM14.34 398.15l209.37 118.44v-92.23L93.19 352.58l-78.85 45.56zM0 385.18V137.52l76.58 44.26v159.2L0 385.17zm8.99-263.71L223.71.01v89.14L86.12 164.84l-1.1.62-76.03-43.99zm447.83 0L242.1.01v89.14l137.59 75.62 1.1.62 76.03-43.92zM223.7 403.36L94.96 332.54V192.35l128.74 74.32v136.69zm18.39 0l128.73-70.75V192.35l-128.73 74.32v136.69zM103.68 176.15l129.21-71.02 129.22 71.02-129.22 74.59-129.21-74.59z" fill="#d1d2d6"/></svg>