<?xml version="1.0" encoding="UTF-8"?>
<!DOCTYPE svg PUBLIC "-//W3C//DTD SVG 1.1//EN" "http://www.w3.org/Graphics/SVG/1.1/DTD/svg11.dtd">
<!-- Creator: CorelDRAW 2018 (64-Bit) -->
<svg xmlns="http://www.w3.org/2000/svg" xml:space="preserve" width="297mm" height="210mm" version="1.1" style="shape-rendering:geometricPrecision; text-rendering:geometricPrecision; image-rendering:optimizeQuality; fill-rule:evenodd; clip-rule:evenodd"
viewBox="0 0 29700 21000"
 xmlns:xlink="http://www.w3.org/1999/xlink">
 <defs>
  <style type="text/css">
   <![CDATA[
    .fil0 {fill:#2F71E5}
    .fil1 {fill:#FEFEFE;fill-rule:nonzero}
   ]]>
  </style>
 </defs>
 <g id="Слой_x0020_1">
  <metadata id="CorelCorpID_0Corel-Layer"/>
  <g id="_2223204615712">
   <rect class="fil0" x="-0" y="-0.02" width="29700.01" height="21000"/>
   <path class="fil1" d="M9015.64 9557.97l0 185.46 -164.26 31.62 0 1316.18 -306.22 0 -619.29 -1031.89 -6.1 1.1 0 814.78 164.26 31.62 0 184.39 -635.09 0 0 -184.39 163.17 -31.62 0 -1100.17 -163.17 -31.62 0 -185.46 163.17 0 307.66 0 618.91 1031.89 6.48 -0.74 0 -814.07 -164.25 -31.62 0 -185.46 470.47 0 164.26 0zm651.95 1555.54c-164.23,-0.36 -295.42,-52.82 -393.91,-158.14 -98.12,-105.31 -147.35,-239 -147.35,-401.11l0 -42.05c0,-169.29 46.73,-308.74 139.46,-417.99 93.09,-109.62 217.79,-164.25 374.5,-163.54 153.82,0 273.14,46.37 357.96,139.1 84.83,92.73 127.61,218.15 127.61,375.95l0 167.48 -680.38 0 -2.16 6.12c5.76,75.1 30.92,136.93 75.48,185.44 44.58,48.53 104.95,72.62 181.51,72.62 67.93,0 124.73,-6.84 169.64,-20.49 44.93,-13.67 93.8,-35.24 147.36,-64.71l83.04 189.42c-47.1,37.38 -107.84,68.64 -182.6,93.8 -74.75,25.16 -158.14,37.74 -250.16,38.1zm-27.3 -945.62c-56.78,0 -101.72,21.57 -134.79,65.05 -33.07,43.51 -53.18,101 -61.09,171.81l3.22 5.03 377.03 0 0 -27.31c0,-65.07 -15.44,-117.17 -45.99,-156.35 -30.57,-38.81 -76.55,-58.23 -138.38,-58.23zm2254.24 -30.54l-114.65 14.72 -237.93 939.16 -256.99 0 -211.69 -678.21 -6.46 0 -211.34 678.21 -255.91 0 -239.01 -939.16 -115.01 -14.72 0 -185.46 516.11 0 0 185.46 -121.11 22.99 107.45 521.15 6.13 0 212.76 -729.6 206.31 0 214.92 731.77 6.48 0 106.02 -522.22 -121.84 -24.09 0 -185.46 515.76 0 0 185.46zm1035.47 206.31l-206.67 0 -32.69 -142.34c-20.85,-16.53 -47.46,-30.9 -79.44,-42.05 -32,-11.15 -67.21,-16.89 -105.67,-16.89 -54.27,0 -97.04,12.22 -128.66,36.31 -31.28,24.42 -47.1,54.63 -47.1,91.28 0,34.5 15.1,62.9 45.29,85.89 30.19,22.66 90.59,42.79 180.79,60.4 141.25,28.02 245.84,69.36 314.13,123.63 67.93,54.64 102.07,129.38 102.07,224.99 0,102.43 -44.2,186.18 -132.26,251.23 -88.06,64.71 -204.14,97.04 -347.91,97.4 -87.7,-0.36 -168.57,-12.94 -241.88,-38.46 -73.34,-25.87 -138.39,-62.54 -195.16,-110.34l-3.24 -255.89 214.93 0 42.03 148.79c18.35,15.47 43.15,26.6 74.77,34.15 31.64,7.19 64.69,11.15 98.83,11.15 62.54,0 110.36,-11.51 142.7,-33.79 32.71,-22.65 49.24,-53.2 49.24,-91.66 0,-33.78 -16.53,-62.9 -49.6,-87.34 -33.07,-24.8 -93.81,-46.37 -182.23,-65.41 -134.06,-27.32 -235.42,-67.92 -303.71,-121.49 -68.64,-53.91 -102.78,-126.87 -102.78,-219.6 0,-95.59 39.52,-177.91 117.89,-246.91 78.7,-69 190.85,-103.86 336.04,-103.86 88.42,0 172.17,12.2 251.25,35.93 78.7,23.73 140.88,54.27 185.8,91.66l3.24 283.22zm156.7 563.18l109.63 -15.8 466.51 -1333.07 314.84 0 463.3 1333.07 109.27 15.8 0 184.39 -522.25 0 0 -184.39 106.39 -18.68 -67.19 -210.62 -497.09 0 -67.57 210.62 106.39 18.68 0 184.39 -522.23 0 0 -184.39zm556.01 -455.72l351.87 0 -172.86 -540.21 -6.48 0 -172.53 540.21zm999.56 455.72l147.34 -31.62 0 -706.25 -163.16 -31.62 0 -185.46 449.62 0 13.65 163.18c37.74,-58.23 84.47,-103.52 139.82,-135.86 55.7,-32.35 117.89,-48.53 186.53,-48.53 115.03,0 204.88,36.31 269.57,108.55 64.69,72.24 97.04,185.82 97.04,340.36l0 495.63 147.37 31.62 0 184.39 -587.65 0 0 -184.39 131.54 -31.62 0 -494.91c0,-76.2 -15.46,-130.48 -46.36,-162.45 -30.91,-32 -77.63,-48.18 -139.81,-48.18 -40.98,0 -77.27,8.27 -109.63,24.81 -32.33,16.53 -59.3,39.9 -81.22,70.09l0 610.64 124.35 31.62 0 184.39 -579 0 0 -184.39zm2111.19 184.39c-8.27,-19.04 -15.82,-38.45 -21.92,-58.59 -6.48,-19.75 -11.51,-39.88 -14.75,-60.37 -36.65,42.05 -81.22,76.19 -133.33,102.07 -52.49,25.87 -112.15,38.81 -179.72,39.17 -111.41,-0.36 -200.19,-30.55 -265.59,-91.28 -65.79,-60.76 -98.5,-143.41 -98.5,-248.01 0,-106.74 42.79,-189.03 128.33,-247.27 85.89,-58.23 211.34,-87.7 377.02,-87.7l157.07 0 0 -111.41c0,-54.63 -15.82,-97.4 -47.44,-127.59 -31.64,-29.83 -78.37,-44.94 -140.19,-44.94 -35.22,0 -66.12,3.96 -93.81,11.87 -27.3,8.27 -49.22,17.61 -66.12,29.11l-20.13 122.21 -231.47 0 1.09 -253.03c56.07,-37.75 120.4,-69.74 193,-95.62 72.6,-25.87 152.03,-39.17 237.57,-39.17 140.88,0 255.56,34.86 343.6,103.88 88.06,69 132.28,167.48 132.28,295.42l0 470.48c0,17.63 0,34.14 0.36,49.6 0.35,15.46 1.78,30.19 3.95,44.22l93.45 12.56 0 184.39 -354.75 0zm-266.33 -205.22c46.37,0 88.42,-10.07 126.16,-30.2 38.1,-19.76 67.57,-44.92 88.78,-75.11l0 -173.95 -157.07 0c-65.42,0 -114.65,15.44 -148.43,46.01 -33.79,30.54 -50.68,67.19 -50.68,109.96 0,38.47 12.58,68.66 37.38,90.58 25.14,21.57 59.66,32.71 103.86,32.71zm692.96 -1252.2l0 -185.11 471.55 0 0 1426.52 148.43 31.62 0 184.39 -604.16 0 0 -184.39 148.44 -31.62 0 -1209.8 -164.26 -31.61zm1899.5 503.54l-106.39 15.82 -419.08 1108.78c-33.07,81.96 -76.91,150.96 -132.26,206.31 -54.99,55.35 -138.02,83.03 -249.07,83.03 -25.88,0 -50.32,-2.17 -72.96,-6.12 -23.01,-4.31 -49.61,-10.41 -80.51,-17.97l35.57 -224.27c10.08,1.43 20.14,2.88 30.55,4.31 10.79,1.43 19.78,1.79 27.33,1.79 51.39,0 90.56,-12.2 118.25,-37.36 27.3,-24.81 48.15,-55.73 62.9,-93.09l34.86 -86.28 -361.21 -938.06 -106.41 -16.89 0 -185.46 558.18 0 0 185.46 -127.59 20.85 155.99 455.01 15.82 81.96 6.46 1.07 180.08 -538.04 -128.69 -20.85 0 -185.46 558.18 0 0 185.46zm504.26 718.1l318.08 0 12.58 -151.66 235.04 0 0 387.44 -946.69 0 0 -181.15 542.36 -720.26 -279.27 0 -11.5 150.6 -235.77 0 0 -388.53 911.83 0 0 175.76 -546.66 727.8zm1247.87 258.06c-164.24,-0.36 -295.42,-52.82 -393.92,-158.14 -98.11,-105.31 -147.34,-239 -147.34,-401.11l0 -42.05c0,-169.29 46.72,-308.74 139.45,-417.99 93.09,-109.62 217.8,-164.25 374.5,-163.54 153.83,0 273.15,46.37 357.97,139.1 84.82,92.73 127.61,218.15 127.61,375.95l0 167.48 -680.38 0 -2.16 6.12c5.76,75.1 30.92,136.93 75.48,185.44 44.57,48.53 104.95,72.62 181.5,72.62 67.93,0 124.73,-6.84 169.65,-20.49 44.93,-13.67 93.8,-35.24 147.36,-64.71l83.03 189.42c-47.1,37.38 -107.83,68.64 -182.6,93.8 -74.74,25.16 -158.13,37.74 -250.15,38.1zm-27.31 -945.62c-56.77,0 -101.71,21.57 -134.78,65.05 -33.07,43.51 -53.18,101 -61.09,171.81l3.22 5.03 377.02 0 0 -27.31c0,-65.07 -15.44,-117.17 -45.98,-156.35 -30.57,-38.81 -76.56,-58.23 -138.39,-58.23zm653.77 738.95l147.37 -31.62 0 -706.25 -163.19 -31.62 0 -185.46 449.65 0 13.65 166.4c26.59,-58.95 61.09,-104.93 103.15,-138 42.05,-33.07 90.94,-49.61 146.65,-49.61 15.79,0 33.07,1.43 51.03,3.96 17.61,2.52 32.69,5.38 44.56,8.98l-32.69 279.98 -126.16 -3.24c-44.94,0 -82.32,9 -111.79,26.26 -29.48,17.6 -51.75,42.76 -67.2,74.74l0 553.86 147.35 31.62 0 184.39 -602.38 0 0 -184.39z"/>
  </g>
 </g>
</svg>
