<svg xmlns="http://www.w3.org/2000/svg" width="100mm" height="176.7" viewBox="0 0 10000 4675.2" shape-rendering="geometricPrecision" text-rendering="geometricPrecision" image-rendering="optimizeQuality" fill-rule="evenodd" clip-rule="evenodd"><path fill="#2f71e5" d="M0-.02h10000v4675.23H0z"/><path d="M3810.5 2145.54v37.8l-33.49 6.45v268.35h-62.43l-126.26-210.38-1.25.22v166.12l33.49 6.44v37.59l-129.48.01v-37.59l33.27-6.45v-224.31l-33.27-6.45v-37.81l33.26.01h62.73l126.18 210.37 1.32-.14.01-165.98-33.49-6.44v-37.82h95.92l33.49.01zm132.92 317.13c-33.49-.06-60.23-10.76-80.31-32.24-20.01-21.46-30.05-48.72-30.05-81.77v-8.57c.01-34.52 9.53-62.95 28.43-85.22 18.98-22.35 44.41-33.49 76.36-33.34 31.36-.01 55.69 9.45 72.98 28.36 17.29 18.89 26.02 44.47 26.02 76.65v34.13l-138.72.01-.43 1.24c1.17 15.32 6.29 27.92 15.39 37.81 9.08 9.9 21.39 14.81 37 14.81 13.85 0 25.43-1.4 34.58-4.17 9.16-2.8 19.13-7.19 30.05-13.2l16.93 38.62c-9.61 7.62-21.99 13.99-37.23 19.12-15.24 5.13-32.24 7.7-51 7.76zm-5.58-192.78c-11.57 0-20.73 4.39-27.47 13.26-6.75 8.87-10.85 20.59-12.46 35.03l.66 1.02h76.87v-5.56c0-13.27-3.15-23.89-9.38-31.88-6.23-7.91-15.61-11.88-28.22-11.87zm459.6-6.23l-23.37 3.01-48.51 191.47h-52.39L4230 2319.86h-1.31l-43.09 138.28h-52.17l-48.73-191.48-23.45-3v-37.81h105.22v37.81l-24.69 4.69 21.91 106.24 1.25.01 43.37-148.75h42.06l43.82 149.19h1.33l21.61-106.47-24.84-4.91v-37.81h105.15v37.81zm211.12 42.06h-42.14l-6.67-29.02c-4.25-3.37-9.67-6.3-16.19-8.57-6.53-2.27-13.7-3.44-21.55-3.44-11.06 0-19.78 2.49-26.23 7.4-6.37 4.98-9.6 11.14-9.6 18.61 0 7.03 3.08 12.82 9.23 17.51 6.16 4.62 18.47 8.73 36.86 12.31 28.8 5.72 50.12 14.15 64.05 25.21 13.85 11.14 20.8 26.38 20.81 45.87 0 20.89-9.01 37.96-26.96 51.22-17.95 13.19-41.63 19.79-70.94 19.86-17.87-.08-34.37-2.64-49.31-7.84-14.95-5.28-28.22-12.75-39.79-22.5l-.67-52.17 43.83.01 8.56 30.33c3.75 3.15 8.8 5.42 15.25 6.95a90.568 90.568 0 0 0 20.15 2.28c12.75 0 22.5-2.35 29.09-6.89 6.67-4.62 10.04-10.85 10.04-18.69 0-6.88-3.37-12.81-10.11-17.8-6.74-5.06-19.12-9.46-37.15-13.34-27.34-5.57-48-13.85-61.92-24.77-14-10.99-20.96-25.86-20.96-44.76 0-19.5 8.06-36.28 24.04-50.34 16.04-14.07 38.91-21.18 68.51-21.18 18.03 0 35.1 2.48 51.22 7.33 16.05 4.83 28.73 11.05 37.89 18.68l.66 57.74zm31.94 114.82l22.35-3.22 95.11-271.79h64.2l94.45 271.8 22.28 3.21v37.6l-106.47-.01v-37.59l21.69-3.81-13.7-42.94h-101.35l-13.77 42.95 21.68 3.81v37.59h-106.46l-.01-37.6zm113.36-92.91h71.74l-35.24-110.14h-1.32l-35.18 110.14zm203.79 92.92l30.04-6.46v-143.98l-33.26-6.45-.01-37.81h91.67l2.79 33.27c7.69-11.87 17.22-21.1 28.5-27.7 11.36-6.6 24.04-9.89 38.03-9.89 23.45 0 41.78 7.4 54.97 22.12 13.18 14.73 19.78 37.89 19.78 69.4v101.05l30.04 6.44v37.6h-119.81l.01-37.59 26.81-6.46V2313.2c0-15.55-3.15-26.61-9.45-33.12-6.3-6.53-15.82-9.83-28.5-9.83-8.36 0-15.75 1.69-22.36 5.05-6.59 3.38-12.08 8.14-16.55 14.3v124.5l25.35 6.44v37.6l-118.05-.01v-37.58zm430.43 37.59c-1.68-3.89-3.23-7.84-4.47-11.95-1.32-4.02-2.35-8.13-3.01-12.31-7.47 8.57-16.55 15.54-27.18 20.82-10.7 5.27-22.87 7.91-36.64 7.98-22.71-.07-40.81-6.23-54.15-18.61-13.41-12.39-20.08-29.24-20.08-50.57 0-21.76 8.72-38.53 26.17-50.41 17.51-11.87 43.08-17.88 76.86-17.88h32.02v-22.71c0-11.14-3.22-19.86-9.67-26.02-6.45-6.07-15.98-9.16-28.58-9.16-7.18 0-13.48.81-19.12 2.42-5.58 1.69-10.04 3.59-13.48 5.93l-4.11 24.93-47.19-.01.22-51.58c11.43-7.7 24.54-14.22 39.34-19.49 14.81-5.29 31-7.99 48.44-7.99 28.73-.01 52.1 7.1 70.06 21.17 17.95 14.07 26.97 34.15 26.97 60.23v95.92c0 3.59-.01 6.97.07 10.12.07 3.15.36 6.15.8 9.02l19.06 2.55v37.6h-72.33zm-54.3-41.84c9.46 0 18.03-2.06 25.72-6.16 7.77-4.03 13.78-9.16 18.1-15.32l.01-35.46h-32.03c-13.34 0-23.38 3.15-30.26 9.38-6.89 6.23-10.34 13.7-10.34 22.42 0 7.84 2.57 14 7.63 18.47 5.12 4.39 12.16 6.67 21.17 6.67zm141.28-255.3v-37.74l96.14-.01v290.85l30.26 6.44v37.6h-123.17l-.01-37.6 30.27-6.44.01-246.65-33.5-6.45zm387.27 102.66l-21.69 3.23-85.44 226.05c-6.74 16.72-15.68 30.78-26.96 42.06-11.22 11.29-28.15 16.93-50.79 16.93-5.28 0-10.25-.44-14.88-1.25-4.68-.87-10.11-2.11-16.4-3.66l7.24-45.72 6.23.88c2.21.29 4.04.36 5.58.37 10.47-.01 18.46-2.49 24.1-7.63 5.57-5.05 9.82-11.36 12.83-18.98l7.11-17.58-73.65-191.26-21.69-3.43v-37.82h113.8l-.01 37.81-26 4.25 31.79 92.77 3.23 16.7 1.33.23 36.71-109.7-26.24-4.25v-37.81h113.8v37.81zm102.81 146.41h64.85l2.56-30.93 47.93.01v78.98l-193.02.01v-36.93l110.58-146.85h-56.94l-2.35 30.7h-48.06v-79.21h185.9v35.83l-111.45 148.39zm254.42 52.61c-33.49-.08-60.24-10.77-80.32-32.24-20-21.48-30.04-48.73-30.03-81.78l-.01-8.57c0-34.52 9.53-62.95 28.44-85.22 18.98-22.35 44.4-33.49 76.34-33.34 31.37 0 55.7 9.45 72.99 28.35 17.3 18.91 26.02 44.48 26.02 76.65v34.15l-138.72-.01-.44 1.25c1.18 15.32 6.3 27.92 15.38 37.81 9.09 9.9 21.4 14.81 37.02 14.81 13.84 0 25.42-1.4 34.58-4.18 9.16-2.78 19.13-7.18 30.05-13.19l16.92 38.62c-9.6 7.62-21.98 13.99-37.22 19.12-15.24 5.13-32.25 7.69-51 7.77zm-5.58-192.79c-11.57 0-20.73 4.4-27.47 13.25-6.74 8.88-10.85 20.6-12.46 35.04l.66 1.03 76.87-.01v-5.56c-.01-13.27-3.15-23.9-9.38-31.88-6.23-7.91-15.61-11.87-28.22-11.87zm133.3 150.65l30.04-6.44v-144l-33.27-6.44v-37.81h91.68l2.77 33.92c5.43-12.01 12.46-21.39 21.04-28.13 8.58-6.74 18.54-10.11 29.89-10.12 3.23 0 6.75.3 10.41.81 3.6.51 6.67 1.1 9.09 1.83l-6.67 57.08-25.72-.66c-9.16 0-16.79 1.84-22.79 5.36-6.01 3.58-10.55 8.71-13.7 15.24v112.92l30.04 6.44v37.6h-122.81v-37.6z" fill="#fefefe" fill-rule="nonzero"/></svg>