<svg xmlns="http://www.w3.org/2000/svg" width="92" height="92" viewBox="0 0 1824.75 1824.75" shape-rendering="geometricPrecision" text-rendering="geometricPrecision" image-rendering="optimizeQuality" fill-rule="evenodd" clip-rule="evenodd"><path fill="#d1d2d6" d="M0 0h1824.75v1824.75H0z"/><path d="M479.81 1524.9l139.64-84.51c26.94 47.77 51.45 88.18 110.23 88.18 56.35 0 91.88-22.04 91.88-107.78V837.74h171.48v585.47c0 177.61-104.11 258.45-256 258.45-137.18 0-216.8-71.04-257.22-156.78v.01zm0 0zm606.32-18.4l139.63-80.84c36.75 60.02 84.52 104.12 169.04 104.12 71.05 0 116.36-35.53 116.36-84.52 0-58.79-46.54-79.62-124.94-113.91l-42.86-18.38c-123.72-52.66-205.79-118.8-205.79-258.45 0-128.61 97.99-226.61 251.11-226.61 109.01 0 187.4 37.98 243.75 137.19l-133.52 85.74c-29.39-52.66-61.23-73.48-110.23-73.48-50.22 0-82.07 31.84-82.07 73.48 0 51.45 31.85 72.28 105.33 104.13l42.87 18.37c145.76 62.48 227.83 126.16 227.83 269.47 0 154.34-121.26 238.85-284.17 238.85-159.24 0-262.13-75.93-312.34-175.15h-.01zm0 0z" fill="#f5f6f7"/></svg>