<?xml version="1.0" encoding="UTF-8"?>
<!DOCTYPE svg PUBLIC "-//W3C//DTD SVG 1.1//EN" "http://www.w3.org/Graphics/SVG/1.1/DTD/svg11.dtd">
<!-- Creator: CorelDRAW 2018 (64-Bit) -->
<svg xmlns="http://www.w3.org/2000/svg" xml:space="preserve" width="23.6314mm" height="26.2077mm" version="1.1" style="shape-rendering:geometricPrecision; text-rendering:geometricPrecision; image-rendering:optimizeQuality; fill-rule:evenodd; clip-rule:evenodd"
viewBox="0 0 465.81 516.59"
 xmlns:xlink="http://www.w3.org/1999/xlink">
 <defs>
  <style type="text/css">
   <![CDATA[
    .fil0 {fill:#D1D2D6}
   ]]>
  </style>
 </defs>
 <g id="Слой_x0020_1">
  <metadata id="CorelCorpID_0Corel-Layer"/>
  <g id="_2402143677232">
   <path class="fil0" d="M451.47 398.15l-209.37 118.44 0 -92.23 130.45 -71.78 78.92 45.56zm14.34 -12.97l0 -247.66 -76.58 44.26 0 159.2 76.58 44.19zm-451.47 12.97l209.37 118.44 0 -92.23 -130.52 -71.78 -78.85 45.56zm-14.34 -12.97l0 -247.66 76.58 44.26 0 159.2 -76.58 44.19zm8.99 -263.71l214.72 -121.46 0 89.14 -137.59 75.69 -1.1 0.62 -76.03 -43.99zm447.83 0l-214.72 -121.46 0 89.14 137.59 75.62 1.1 0.62 76.03 -43.92z"/>
   <path class="fil0" d="M223.7 403.36l-128.74 -70.82 0 -140.19 128.74 74.32 0 136.69zm18.39 0l128.73 -70.75 0 -140.26 -128.73 74.32 0 136.69zm-138.41 -227.21l129.21 -71.02 129.22 71.02 -129.22 74.59 -129.21 -74.59z"/>
  </g>
 </g>
</svg>
